<svg
   xmlns="http://www.w3.org/2000/svg"
   viewBox="0 0 1000 1000">
<g transform="translate(0,-20)">   
  <path
     id="arch"
     d="
              M075,775 
      Q075,400 500,075 
      Q925,400 925,775"
     style="fill:none; stroke:#333; stroke-width:20" />

    <circle cx="500" cy="425" r="180" style="fill:#333; stroke:none"/>

  <path
     id="artes-1"
     d="M500,400 L480,350 Q450,275 500,275 Q550,275 520,350 L500,400 L480,350"
     style="fill:#b49; stroke:none; stroke-width:17" />
  <path
     id="artes-2"
     transform="rotate(51.43, 500,425)"
     d="M500,400 L480,350 Q450,275 500,275 Q550,275 520,350 L500,400 L480,350"
     style="fill:#b49; stroke:none; stroke-width:17" />
  <path
     id="artes-3"
     transform="rotate(102.86, 500,425)"
     d="M500,400 L480,350 Q450,275 500,275 Q550,275 520,350 L500,400 L480,350"
     style="fill:#49b; stroke:none; stroke-width:17" />
  <path
     id="artes-4"
     transform="rotate(154.29, 500,425)"
     d="M500,400 L480,350 Q450,275 500,275 Q550,275 520,350 L500,400 L480,350"
     style="fill:#49b; stroke:none; stroke-width:17" />
  <path
     id="artes-5"
     transform="rotate(205.71, 500,425)"
     d="M500,400 L480,350 Q450,275 500,275 Q550,275 520,350 L500,400 L480,350"
     style="fill:#49b; stroke:none; stroke-width:17" />
  <path
     id="artes-6"
     transform="rotate(257.14, 500,425)"
     d="M500,400 L480,350 Q450,275 500,275 Q550,275 520,350 L500,400 L480,350"
     style="fill:#49b; stroke:none; stroke-width:17" />
  <path
     id="artes-7"
     transform="rotate(308.57, 500,425)"
     d="M500,400 L480,350 Q450,275 500,275 Q550,275 520,350 L500,400 L480,350"
     style="fill:#b49; stroke:none; stroke-width:17" />
</g>

  <g
     id="lasco"
     style="font-size:225px;font-family:'Bookman Old Style', Georgia, monospace;text-anchor:middle">
    <path
       d="m 197.54639,621.74072 h 59.43603 v 9.33838 h -5.49316 q -6.37207,0 -9.00879,1.2085 -2.63672,1.20849 -3.84522,3.51562 -1.20849,2.30713 -1.20849,8.23975 v 106.89697 q 0,7.36084 0.54931,8.78906 0.65918,1.97754 2.85645,2.85645 1.53809,0.65918 8.89893,0.65918 h 8.23974 q 14.17236,0 24.60938,-4.06494 10.43701,-4.17481 18.01757,-11.9751 7.58057,-7.91016 14.61182,-23.51074 l 9.77783,3.2959 L 307.84912,775 H 197.54639 v -9.22852 h 4.83398 q 7.03125,0 9.44824,-1.20849 2.417,-1.2085 3.73535,-3.95508 1.31836,-2.85645 1.31836,-9.66797 V 646.67969 q 0,-7.91016 -1.20849,-10.54688 -1.2085,-2.74658 -3.51563,-3.84521 -2.30713,-1.2085 -9.77783,-1.2085 h -4.83398 z"
       id="path123" />
    <path
       d="m 409.36279,711.38916 v -11.9751 q 0,-12.19482 -6.81152,-17.3584 -6.81152,-5.27343 -19.22607,-5.27343 -6.15235,0 -10.76661,1.53808 -4.61425,1.42823 -7.4707,4.06494 -2.74658,2.52686 -4.06494,5.82276 -0.54932,1.20849 -2.63672,9.33838 -2.52686,9.88769 -10.21728,9.88769 -4.39454,0 -7.14112,-2.85644 -2.63672,-2.96631 -2.63672,-7.91016 0,-7.25098 5.3833,-14.17236 5.3833,-7.03125 16.36963,-11.53565 11.09619,-4.61426 26.14746,-4.61426 14.0625,0 24.06006,4.39454 9.99756,4.28466 14.72168,12.41455 3.2959,5.60302 3.2959,20.43457 v 42.29736 q 0,9.00879 0.54932,11.75537 1.20849,4.72412 4.1748,7.14111 3.07617,2.30713 7.91016,2.30713 5.05371,0 12.08496,-2.41699 v 9.55811 q -9.11865,2.63672 -16.36963,2.63672 -7.80029,0 -13.18359,-2.19727 -5.27344,-2.19727 -8.6792,-6.37207 -3.40576,-4.28467 -4.39453,-10.10742 -13.1836,10.32715 -23.84034,14.50195 -10.65673,4.17481 -21.5332,4.17481 -15.16113,0 -24.60937,-8.23975 -9.44825,-8.23975 -9.44825,-19.33594 0,-6.70166 3.40577,-12.74414 3.51562,-6.04248 10.54687,-10.65674 7.14111,-4.61425 22.30225,-8.12988 15.16113,-3.51562 42.07763,-6.37207 z m 0,9.55811 q -25.48828,3.73535 -31.53076,5.16357 -11.9751,2.74658 -17.13867,6.04248 -5.16357,3.2959 -7.36084,7.14111 -2.19727,3.73536 -2.19727,8.02002 0,4.28467 2.417,8.34961 2.52685,3.95508 7.03125,6.26221 4.50439,2.30713 9.5581,2.30713 7.14111,0 16.1499,-3.40576 9.00879,-3.40577 23.07129,-13.29346 z"
       id="path125" />
    <path
       d="m 535.26611,668.98193 h 7.69043 l 9.8877,33.61817 -9.8877,3.2959 q -5.93261,-13.51319 -16.69922,-21.20362 -10.65673,-7.80029 -21.64306,-7.80029 -8.45947,0 -13.73291,4.1748 -5.27344,4.06495 -5.27344,9.44825 0,5.05371 3.84521,8.6792 3.73536,3.73535 16.80909,8.45947 l 21.42334,7.58056 q 18.12744,6.48194 24.71924,13.84278 6.48193,7.4707 6.48193,16.91894 0,8.02002 -4.83399,15.49073 -4.83398,7.36084 -14.0625,11.75537 -9.11865,4.39453 -20.98388,4.39453 -18.45703,0 -31.64063,-10.54688 L 485.05859,775 h -7.80029 l -13.73291,-35.92529 9.99756,-3.95508 q 9.99756,15.82031 18.89648,22.41211 12.41455,9.33838 26.80664,9.33838 9.55811,0 15.71045,-5.05371 6.15235,-5.16358 6.15235,-11.42579 0,-5.16357 -3.84522,-9.44824 -3.95508,-4.1748 -15.16113,-8.12988 l -25.37842,-9.22852 q -16.36963,-5.93261 -22.7417,-12.96386 -6.37207,-7.03125 -6.37207,-16.14991 0,-11.09619 10.32715,-19.55566 10.43701,-8.56934 26.47705,-8.56934 8.34961,0 14.94141,2.19727 6.59179,2.0874 12.96386,7.03125 z"
       id="path127" />
    <path
       d="m 675.01221,744.34814 7.03125,5.7129 q -20.6543,27.57568 -49.54834,27.57568 -22.52198,0 -38.0127,-16.04004 -15.49072,-16.04004 -15.49072,-39.88037 0,-15.93018 7.14111,-28.56445 7.25098,-12.74415 19.99512,-19.7754 12.854,-7.03125 29.44336,-7.03125 18.89648,0 31.53076,9.33838 12.63428,9.22852 12.63428,18.67676 0,5.05371 -2.96631,7.80029 -2.96631,2.74659 -6.70166,2.74659 -1.97754,0 -3.84522,-0.98877 -1.86767,-0.98877 -3.84521,-3.18604 -0.87891,-0.98877 -3.18604,-6.15234 -2.9663,-6.37207 -4.61425,-8.56934 -3.40577,-4.39453 -8.45948,-6.92138 -4.94384,-2.52686 -11.09619,-2.52686 -9.33838,0 -17.3584,5.16357 -7.91015,5.16358 -12.63427,15.271 -4.61426,9.99756 -4.61426,23.9502 0,21.64306 11.53564,34.3872 9.99756,10.98633 23.84034,10.98633 6.37207,0 12.854,-2.0874 6.5918,-2.19727 12.41455,-6.37207 4.28467,-2.96631 13.95264,-13.51319 z"
       id="path129" />
    <path
       d="m 750.37842,666.34521 q 16.1499,0 27.90527,6.70166 11.86524,6.70167 18.67676,19.55567 6.81152,12.854 6.81152,29.3335 0,16.47949 -7.03125,29.33349 -6.92138,12.85401 -19.00635,19.66553 -11.97509,6.70166 -28.67431,6.70166 -26.58692,0 -39.99024,-16.58936 -13.29345,-16.58935 -13.29345,-39.00146 0,-16.36963 6.92138,-29.00391 6.92139,-12.74414 19.33594,-19.66553 12.52442,-7.03125 28.34473,-7.03125 z m -0.87891,10.65674 q -12.52441,0 -21.20361,9.8877 -10.98633,12.30469 -10.98633,35.81543 0,22.63183 9.33838,34.49707 8.45947,10.54687 22.96142,10.54687 9.33838,0 16.58936,-4.94384 7.36084,-4.94385 11.86523,-15.71045 4.5044,-10.87647 4.5044,-25.48828 0,-14.28223 -4.83399,-25.59815 -3.73535,-9.00879 -11.31591,-13.95264 -7.47071,-5.05371 -16.91895,-5.05371 z"
       id="path131" />
  </g>
  <g
     id="institute"
     style="font-size:225px;font-family:'Bookman Old Style', Georgia, monospace;text-anchor:middle">
    <path
       d="m 40.936279,821.74072 h 58.666992 v 9.33838 h -4.504394 q -6.37207,0 -9.228516,1.75781 -2.856445,1.75782 -4.174804,5.05371 -1.31836,3.18604 -1.31836,12.52442 v 98.76709 q 0,7.4707 1.428223,10.65674 1.428223,3.07617 3.955078,4.50439 2.636719,1.42822 9.338379,1.42822 h 4.504394 V 975 H 40.936279 v -9.22852 h 4.833985 q 6.481933,0 9.118652,-1.42822 2.746582,-1.53808 3.955078,-4.28467 1.208496,-2.85644 1.208496,-10.87646 V 848.10791 q 0,-8.45947 -1.208496,-11.31592 -1.208496,-2.96631 -3.955078,-4.28467 -2.636719,-1.42822 -9.118652,-1.42822 h -4.833985 z"
       id="path152" />
    <path
       d="m 116.74194,884.80225 v -9.22852 q 9.77784,-1.09863 14.61182,-2.63672 4.83398,-1.53808 13.95264,-6.5918 h 7.91015 v 20.87403 q 14.50196,-12.19483 24.71924,-16.47949 10.32715,-4.39454 20.87402,-4.39454 9.00879,0 15.93018,3.07618 6.92139,2.96631 11.20605,8.12988 4.39454,5.16357 5.82276,11.75537 0.87891,4.06494 0.87891,12.30469 v 48.33984 q 0,8.6792 1.20849,11.20606 1.31836,2.41699 4.06494,3.51562 2.74658,1.09863 13.51319,1.09863 V 975 h -56.57959 v -9.22852 h 3.07617 q 7.91015,0 10.7666,-1.42822 2.85645,-1.42822 4.06494,-4.1748 1.31836,-2.74659 1.31836,-11.20606 v -40.42969 q 0,-12.52441 -2.0874,-17.35839 -1.97754,-4.83399 -6.92139,-7.8003 -4.83398,-3.07617 -12.30469,-3.07617 -8.89892,0 -19.00634,4.61426 -10.10743,4.50439 -19.55567,13.40332 v 50.64697 q 0,8.56934 1.2085,11.42578 1.31836,2.85645 4.1748,4.28467 1.97754,1.09863 10.54688,1.09863 h 3.18603 V 975 h -56.57959 v -9.22852 h 2.74659 q 8.12988,0 11.09619,-1.31836 2.96631,-1.42822 4.1748,-4.94384 0.65918,-1.75782 0.65918,-12.08496 v -62.62207 z"
       id="path154" />
    <path
       d="m 339.54468,868.98193 h 7.69043 l 9.88769,33.61817 -9.88769,3.2959 q -5.93262,-13.51319 -16.69922,-21.20362 -10.65674,-7.80029 -21.64307,-7.80029 -8.45947,0 -13.73291,4.1748 -5.27344,4.06495 -5.27344,9.44825 0,5.05371 3.84522,8.6792 3.73535,3.73535 16.80908,8.45947 l 21.42334,7.58056 q 18.12744,6.48194 24.71924,13.84278 6.48193,7.4707 6.48193,16.91894 0,8.02002 -4.83398,15.49073 -4.83399,7.36084 -14.0625,11.75537 -9.11865,4.39453 -20.98389,4.39453 -18.45703,0 -31.64062,-10.54688 L 289.33716,975 h -7.80029 l -13.73291,-35.92529 9.99755,-3.95508 q 9.99756,15.82031 18.89649,22.41211 12.41455,9.33838 26.80664,9.33838 9.5581,0 15.71045,-5.05371 6.15234,-5.16358 6.15234,-11.42579 0,-5.16357 -3.84521,-9.44824 -3.95508,-4.1748 -15.16114,-8.12988 l -25.37841,-9.22852 q -16.36963,-5.93261 -22.7417,-12.96386 -6.37207,-7.03125 -6.37207,-16.14991 0,-11.09619 10.32714,-19.55566 10.43702,-8.56934 26.47706,-8.56934 8.34961,0 14.9414,2.19727 6.5918,2.0874 12.96387,7.03125 z"
       id="path156" />
    <path
       d="m 411.06567,831.62842 h 7.8003 v 37.35351 h 32.62939 v 10.98633 h -32.62939 v 66.24756 q 0,8.45947 1.42822,12.08496 1.53809,3.62549 5.05371,5.93262 3.62549,2.30713 8.02002,2.30713 10.43701,0 23.07129,-9.33838 v 10.65674 q -14.39209,9.77783 -29.11377,9.77783 -8.34961,0 -15.16113,-3.73535 -6.70166,-3.73535 -9.22852,-8.78907 -2.41699,-5.05371 -2.41699,-17.57812 v -67.56592 h -19.22608 v -9.22851 q 9.22852,-2.08741 14.83155,-6.48194 5.71289,-4.39453 9.22851,-11.42578 3.51563,-7.03125 5.71289,-21.20361 z"
       id="path158" />
    <path
       d="m 494.78149,816.79687 q 5.27344,0 9.00879,3.73536 3.73535,3.62548 3.73535,8.89892 0,5.27344 -3.73535,9.00879 -3.73535,3.73535 -9.00879,3.73535 -5.27343,0 -9.00878,-3.73535 -3.73536,-3.73535 -3.73536,-9.00879 0,-5.27344 3.73536,-8.89892 3.73535,-3.73536 9.00878,-3.73536 z m -28.01513,68.00538 v -9.11866 q 9.11865,-1.09863 15.27099,-3.07617 6.26221,-1.97754 14.17237,-6.26221 h 8.02002 v 88.11036 q 0,4.61425 1.31836,6.92138 1.31836,2.30713 3.62548,3.40576 2.417,0.98877 8.6792,0.98877 h 5.16358 V 975 h -56.25 v -9.22852 h 4.50439 q 7.36084,0 9.8877,-1.31836 2.52685,-1.31835 3.51562,-3.73535 1.09864,-2.41699 1.09864,-11.31591 v -64.59961 z"
       id="path160" />
    <path
       d="m 563.99536,831.62842 h 7.80029 v 37.35351 h 32.6294 v 10.98633 h -32.6294 v 66.24756 q 0,8.45947 1.42823,12.08496 1.53808,3.62549 5.05371,5.93262 3.62549,2.30713 8.02002,2.30713 10.43701,0 23.07129,-9.33838 v 10.65674 q -14.39209,9.77783 -29.11377,9.77783 -8.34961,0 -15.16114,-3.73535 -6.70166,-3.73535 -9.22851,-8.78907 -2.41699,-5.05371 -2.41699,-17.57812 v -67.56592 h -19.22608 v -9.22851 q 9.22852,-2.08741 14.83155,-6.48194 5.71289,-4.39453 9.22851,-11.42578 3.51563,-7.03125 5.71289,-21.20361 z"
       id="path162" />
    <path
       d="m 614.64233,868.98193 41.63819,-1.64795 v 70.75196 q 0,9.33838 2.52685,14.83154 2.63672,5.49316 7.91016,8.56934 5.3833,2.9663 12.52441,2.9663 8.78907,0 19.88526,-4.72412 11.20605,-4.72412 22.30224,-14.0625 v -51.19629 q 0,-8.12988 -1.20849,-10.65673 -1.2085,-2.52686 -4.28467,-4.06494 -3.07617,-1.53809 -9.66797,-1.53809 h -8.02002 v -9.22852 l 41.63818,-1.64795 v 81.95801 q 0,7.91016 1.31836,10.98633 1.31836,2.96631 3.84522,4.28467 2.63672,1.20849 10.43701,1.20849 h 3.40576 V 975 l -36.47461,1.86768 v -20.32471 q -15.05127,11.9751 -26.25732,16.58935 -11.20606,4.5044 -22.7417,4.5044 -8.56934,0 -14.94141,-2.30713 -6.2622,-2.30713 -11.09619,-6.92139 -4.72412,-4.61425 -7.25097,-11.09619 -2.52686,-6.48193 -2.52686,-13.84277 v -49.98779 q 0,-6.70166 -1.2085,-9.33838 -1.20849,-2.74659 -4.06494,-4.28467 -2.74658,-1.64795 -7.58056,-1.64795 h -10.10743 z"
       id="path164" />
    <path
       d="m 802.50854,831.62842 h 7.8003 v 37.35351 h 32.62939 v 10.98633 h -32.62939 v 66.24756 q 0,8.45947 1.42822,12.08496 1.53809,3.62549 5.05371,5.93262 3.62549,2.30713 8.02002,2.30713 10.43701,0 23.07129,-9.33838 v 10.65674 q -14.39209,9.77783 -29.11377,9.77783 -8.34961,0 -15.16113,-3.73535 -6.70166,-3.73535 -9.22852,-8.78907 -2.41699,-5.05371 -2.41699,-17.57812 V 879.96826 H 772.7356 v -9.22851 q 9.22851,-2.08741 14.83154,-6.48194 5.71289,-4.39453 9.22851,-11.42578 3.51563,-7.03125 5.71289,-21.20361 z"
       id="path166" />
    <path
       d="m 953.1311,946.65527 7.03125,5.71289 q -8.02002,9.55811 -15.60058,15.16114 -7.47071,5.60302 -14.17237,7.80029 -6.70166,2.30713 -15.71044,2.30713 -16.14991,0 -27.46583,-6.5918 -12.96386,-7.58056 -19.88525,-19.77539 -6.92139,-12.19482 -6.92139,-28.78418 0,-17.3584 6.70166,-29.66308 6.70166,-12.30469 18.67676,-19.33594 12.08496,-7.14112 27.90528,-7.14112 11.75537,0 20.43457,3.73536 8.6792,3.62548 14.72168,11.09619 6.04248,7.36084 8.78906,16.91894 1.53808,5.60303 1.75781,14.50196 h -77.67334 q -0.32959,5.3833 -0.32959,8.02002 0,13.84277 4.83399,24.71923 4.83398,10.76661 12.74414,15.93018 8.02002,5.05371 18.12744,5.05371 8.56933,0 16.58935,-3.95508 8.02002,-4.06494 19.4458,-15.71045 z m -14.0625,-44.38476 q -1.64795,-10.10742 -4.72412,-14.94141 -2.96631,-4.83398 -8.56933,-7.69043 -5.49317,-2.85644 -12.41455,-2.85644 -6.92139,0 -12.96387,2.85644 -6.04248,2.85645 -10.10742,7.91016 -3.95508,5.05371 -6.92139,14.72168 z"
       id="path168" />
  </g>
</svg>
